<?xml version="1.0" standalone="no"?>
<!DOCTYPE svg PUBLIC "-//W3C//DTD SVG 20010904//EN"
 "http://www.w3.org/TR/2001/REC-SVG-20010904/DTD/svg10.dtd">
<svg version="1.0" xmlns="http://www.w3.org/2000/svg"
 width="700.000000pt" height="700.000000pt" viewBox="0 0 700.000000 700.000000"
 preserveAspectRatio="xMidYMid meet">
<metadata>
Created by potrace 1.14, written by Peter Selinger 2001-2017
</metadata>
<g transform="translate(0.000000,700.000000) scale(0.100000,-0.100000)"
fill="#000000" stroke="none">
<path d="M3295 6989 c-716 -41 -1373 -289 -1957 -739 -155 -119 -463 -426
-582 -580 -286 -369 -504 -797 -620 -1215 -255 -920 -131 -1908 340 -2712 446
-763 1154 -1325 1994 -1584 609 -189 1306 -203 1925 -39 471 125 912 347 1300
656 141 113 416 388 529 529 470 590 729 1277 765 2027 38 794 -184 1553 -648
2208 -493 697 -1283 1210 -2131 1384 -168 34 -332 55 -530 66 -180 11 -194 11
-385 -1z m-1679 -1657 c95 -36 180 -106 239 -197 18 -27 362 -624 765 -1325
777 -1353 869 -1510 879 -1510 3 1 53 83 110 183 57 100 424 738 815 1417 659
1145 716 1240 778 1303 150 152 362 187 556 91 221 -109 329 -381 239 -603
-13 -33 -103 -196 -199 -363 -97 -167 -427 -737 -734 -1268 -307 -531 -690
-1194 -852 -1475 -162 -280 -309 -531 -328 -557 -175 -238 -519 -262 -726 -51
-63 65 26 -87 -1306 2220 -451 782 -831 1441 -843 1465 -77 151 -63 347 34
490 123 181 369 258 573 180z"/>
</g>
</svg>
