<svg width="629" height="351" viewBox="0 0 629 351" fill="none" xmlns="http://www.w3.org/2000/svg">
    <path d="M471 140.054C487.4 168.454 488.167 224.22 486.5 248.554L441 200.554L337 179.054L209.5 216.054L173 261.554L132.5 246.554C130.5 230.954 133.333 209.387 135 200.554C93 144.054 105 129.054 104 103.054C103.2 82.2538 163 80.7205 193 82.5538C206.6 69.3538 236 68.3871 249 69.5538C276.2 48.3538 306.333 47.0538 318 49.0538C332.333 32.0538 367.8 -0.646205 395 4.55379C422.2 9.75379 434.667 72.3871 437.5 103.054L471 140.054Z" fill="#F6B167" />
    <path d="M193 167.178C196.667 161.845 209.1 152.278 229.5 156.678" stroke="black" stroke-width="8" stroke-linecap="round" />
    <path d="M260 131.554C230.4 138.354 225.333 168.721 226.5 183.054L329 159.054C311 137.054 289.6 124.754 260 131.554Z" fill="black" stroke="black" stroke-width="8" stroke-linecap="round" />
    <path d="M309.915 135.515C312.407 128.632 322.931 114.989 345.095 115.484" stroke="black" stroke-width="8" stroke-linecap="round" />
    <path d="M387.5 155.054C421.9 179.054 463.5 188.72 480 190.554L485.5 244.054L419 304.554H206.5L175 259.054C171.4 215.054 208.833 193.054 228 187.554C228.4 161.954 237.5 155.22 242 155.054L282.5 145.054C300.9 135.054 321.833 152.554 330 162.554C355.2 142.154 378.833 149.054 387.5 155.054Z" fill="white" />
    <path d="M0 304.554H629" stroke="black" stroke-width="8" />
    <path d="M132.5 250.054C85.3 247.654 74.8333 285.72 75.5 305.054L77 318.054C81.4 336.054 98.1667 335.554 106 333.054C116.8 349.054 134.833 345.054 142.5 341.054C160.5 353.454 176.333 339.887 182 331.554C191.6 333.154 197.333 328.22 199 325.554C201.5 324.054 206 317.254 204 302.054C201.5 283.054 191.5 253.054 132.5 250.054Z" fill="white" stroke="black" stroke-width="8" />
    <path d="M496.983 249.662C544.173 247.265 554.637 285.289 553.971 304.601L552.471 317.587C548.072 335.567 531.309 335.068 523.477 332.57C512.68 348.553 494.65 344.557 486.985 340.562C468.989 352.948 453.159 339.396 447.494 331.072C437.896 332.67 432.164 327.742 430.497 325.079C427.998 323.58 423.499 316.788 425.498 301.605C427.998 282.626 437.996 252.659 496.983 249.662Z" fill="white" stroke="black" stroke-width="8" />
    <path d="M486.5 248.554C488.167 224.22 484 171.054 470 141.054L464 131.554L458 124.054L449.5 115.054L437.5 103.054C434.667 72.3871 422.2 9.75379 395 4.55379C367.8 -0.646205 332.333 32.0538 318 49.0538C306.333 47.0538 276.2 48.3538 249 69.5538C236 68.3871 206.6 69.3538 193 82.5538C163 80.7205 111.196 83.5219 104 103.054C100.5 112.554 93 144.054 135 200.554C133.333 209.387 130.5 230.954 132.5 246.554" stroke="black" stroke-width="8" />
    <path d="M143 187.054C147.8 155.454 169 121.554 179 108.554C172.833 107.22 158.3 104.054 149.5 102.054C138.5 99.5538 126 98.5538 118 108.554C111.6 116.554 132 164.22 143 187.054Z" fill="#FADA9C" stroke="black" stroke-width="8" />
    <path d="M392 22.0538C379.6 20.4538 355.833 46.3871 345.5 59.5538C357.5 52.7538 401.167 84.3871 421.5 101.054C416.833 75.3871 404.4 23.6538 392 22.0538Z" fill="#FADA9C" stroke="black" stroke-width="8" />
    <ellipse cx="215.5" cy="126.054" rx="17.5" ry="12.5" fill="white" />
    <ellipse cx="301.374" cy="99.002" rx="17.5" ry="12.5" transform="rotate(150.805 301.374 99.002)" fill="white" />
    <path d="M234.5 155.554C235.7 147.554 248.333 140.22 254.5 137.554C270.5 130.354 286.5 134.554 292.5 137.554C304.5 165.554 287.5 185.887 277.5 192.554L281.5 201.054C290.7 198.254 296.667 199.887 298.5 201.054C310.833 206.554 337.6 212.554 346 192.554C354.4 172.554 361.833 169.554 364.5 170.554C385.3 180.154 379.167 216.554 373.5 233.554C335.5 294.354 274 288.554 248 278.054C209.6 254.854 207.667 234.387 211.5 227.054C214.167 224.054 222.1 220.354 232.5 229.554C242.9 238.754 250.167 233.387 252.5 229.554C265.3 211.954 272.833 205.554 275 204.554L270 195.054C234.5 188.554 233 165.554 234.5 155.554Z" fill="black" stroke="black" stroke-width="8" stroke-linecap="round" />
    <path d="M324.5 260.054C323.3 251.254 333.333 234.72 338.5 227.554C320.1 214.754 303.833 224.887 298 231.554C304 261.154 285.833 287.554 276 297.054C299.2 259.854 295.333 237.887 290.5 231.554C275.3 226.754 264.833 255.22 261.5 270.054C254.7 273.654 253.5 277.054 251.5 279.554L251.466 279.623C248.975 284.603 246.315 289.923 249.5 305.054C252.7 320.254 267.167 322.72 274 322.054C320 316.554 326 271.054 324.5 260.054Z" fill="#F38F8E" stroke="black" stroke-width="8" />
</svg>